<svg width="15" height="14" viewBox="0 0 15 14" fill="none" xmlns="http://www.w3.org/2000/svg">
<path d="M10.137 13.7626H4.43998C3.32675 13.7614 2.25947 13.3419 1.47233 12.596C0.685181 11.8502 0.24245 10.839 0.241272 9.78429L0.241272 4.38669C0.242528 3.33203 0.685294 2.3209 1.47243 1.57514C2.25957 0.829374 3.3268 0.409882 4.43998 0.408691L10.137 0.408691C11.2503 0.409807 12.3176 0.829267 13.1048 1.57504C13.892 2.32081 14.3348 3.33198 14.336 4.38669V9.78429C14.3349 10.8391 13.8921 11.8503 13.1049 12.5961C12.3177 13.342 11.2503 13.7615 10.137 13.7626ZM4.43998 1.75184C3.70267 1.75265 2.9958 2.03052 2.47444 2.52447C1.95308 3.01843 1.6598 3.68814 1.65894 4.38669V9.78429C1.6598 10.4828 1.95309 11.1525 2.47446 11.6464C2.99583 12.1403 3.70269 12.4181 4.43998 12.4189H10.137C10.8743 12.4181 11.5811 12.1403 12.1025 11.6464C12.6238 11.1525 12.917 10.4828 12.9178 9.78429V4.38669C12.917 3.68816 12.6238 3.01845 12.1025 2.52449C11.5812 2.03053 10.8743 1.75265 10.137 1.75184H4.43998ZM7.28777 10.5389C6.56686 10.5387 5.86221 10.3359 5.26291 9.95632C4.66362 9.57669 4.19659 9.03722 3.92089 8.40613C3.64519 7.77504 3.57319 7.08066 3.71399 6.4108C3.8548 5.74094 4.20209 5.12568 4.71196 4.64282C5.22182 4.15995 5.87136 3.83117 6.57844 3.69803C7.28552 3.5649 8.01839 3.6334 8.68438 3.89487C9.35037 4.15633 9.91958 4.59903 10.32 5.16698C10.7205 5.73492 10.9342 6.40262 10.9341 7.08563C10.9332 8.00135 10.5488 8.8793 9.86533 9.52678C9.18187 10.1743 8.25518 10.5384 7.28866 10.5392L7.28777 10.5389ZM7.28777 4.97409C6.84721 4.97409 6.41654 5.09787 6.05023 5.32976C5.68392 5.56166 5.39842 5.89126 5.22982 6.27689C5.06123 6.66252 5.01712 7.08685 5.10307 7.49623C5.18901 7.90561 5.40116 8.28165 5.71269 8.5768C6.02421 8.87194 6.42111 9.07294 6.8532 9.15437C7.2853 9.2358 7.73317 9.19401 8.1402 9.03428C8.54722 8.87455 8.89511 8.60405 9.13987 8.25699C9.38463 7.90994 9.51527 7.50191 9.51527 7.08451C9.51433 6.52531 9.27943 5.98928 8.86205 5.5939C8.44468 5.19852 7.87888 4.97603 7.28866 4.97522L7.28777 4.97409ZM10.9401 4.48422C10.7673 4.48416 10.5984 4.43557 10.4548 4.34457C10.3111 4.25358 10.1992 4.12427 10.1331 3.97301C10.0671 3.82175 10.0498 3.65532 10.0836 3.49477C10.1173 3.33422 10.2006 3.18677 10.3228 3.07105C10.445 2.95534 10.6007 2.87656 10.7702 2.84468C10.9397 2.81279 11.1153 2.82924 11.2749 2.89194C11.4346 2.95464 11.571 3.06077 11.6669 3.19691C11.7629 3.33306 11.814 3.4931 11.814 3.6568C11.814 3.8763 11.722 4.08683 11.5584 4.24217C11.3947 4.39751 11.1726 4.48497 10.9409 4.48534L10.9401 4.48422Z" fill="white"/>
</svg>
