<svg width="79" height="72" viewBox="0 0 79 72" fill="none" xmlns="http://www.w3.org/2000/svg">
<path d="M31.9144 38.2244C32.0553 38.0131 32.1257 37.8369 32.2666 37.8017C33.112 37.5199 33.9574 37.2381 34.8381 37.0267C35.2608 36.9211 35.7187 36.9211 36.1414 36.8506C37.3039 36.6393 37.6209 35.7586 37.8322 34.7723C38.0436 33.6099 38.3606 32.4474 38.4311 31.2498C38.5015 30.3691 38.3606 29.4885 38.2197 28.6078C38.0084 27.6215 37.7266 26.6352 38.5015 25.7194C38.2902 25.6137 38.114 25.508 37.8675 25.4023C37.9731 25.2262 38.0436 25.0853 38.1493 24.9092C37.2334 24.2751 37.2334 23.4649 37.5857 22.5138C38.0436 21.2809 38.6424 20.0833 38.4663 18.7095C38.4311 18.4277 38.2902 18.1459 38.1845 17.8641C38.0436 17.547 37.8675 17.23 37.7266 16.8777C37.0573 15.0108 35.6483 14.0949 33.6404 14.3063C32.5484 14.4472 31.4916 14.729 30.3997 14.9403C29.7304 15.0812 29.0259 15.2574 28.3566 15.2926C27.6873 15.363 27.018 15.2926 26.1374 15.2926C26.2783 15.5744 26.4192 15.7857 26.5248 16.0323C26.5953 16.2085 26.6657 16.3846 26.6657 16.5255C26.701 17.1243 26.701 17.7232 26.7714 18.322C26.8066 18.5686 26.9123 18.8151 27.018 19.0969C27.335 18.956 27.5816 18.8504 27.6873 18.8151C27.8634 19.3788 27.9691 19.9071 28.1804 20.4003C28.9554 22.0559 29.7656 23.7115 30.5406 25.3319C30.7871 25.8603 31.1042 26.3534 31.386 26.8466C31.2098 27.0579 31.0337 27.375 30.7519 27.5511C30.4701 27.7624 30.0826 27.9738 29.7304 27.9738C27.2646 28.009 24.834 28.009 22.3682 27.9738C21.9807 27.9738 21.6285 27.5863 21.241 27.3397C21.0297 27.1988 20.8888 27.0227 20.7831 26.9522C21.9455 24.5569 23.108 22.1968 24.2 19.8015C24.3409 19.5549 24.2352 19.1674 24.2704 18.8856C25.1158 19.0617 25.2215 18.9913 25.292 18.005C25.3272 17.5823 25.292 17.1948 25.3272 16.7721C25.3624 16.455 25.1863 15.9971 25.7499 15.9971C25.7147 15.6801 25.7499 15.2574 25.609 15.046C25.3624 14.729 24.9749 14.5176 24.6579 14.1654C26.3839 14.8347 27.9691 14.412 29.5542 13.7427C30.5053 13.32 31.4564 12.9325 32.4075 12.545C34.3449 11.77 36.1414 12.1927 37.7618 13.4256C37.9379 13.5665 38.0788 13.6722 38.3606 13.8836C38.3959 13.2143 38.6072 12.6859 37.9731 12.228C37.4448 11.8405 37.48 10.9598 37.9379 10.0792C38.3606 9.26902 38.7481 8.45884 39.1004 7.78955C39.4526 8.49406 39.9106 9.3747 40.3333 10.2553C40.756 11.136 40.6503 11.6291 40.0515 12.4041C39.8049 12.7211 39.8753 13.2495 39.8049 13.6722C39.8753 13.7074 39.9106 13.7427 39.981 13.7779C40.1924 13.637 40.3685 13.4961 40.5798 13.3552C42.2002 12.1223 43.9615 11.77 45.8637 12.5098C46.9557 12.9325 48.0476 13.4256 49.1044 13.8483C50.5487 14.4472 51.9929 14.6938 53.5781 14.1654C53.3315 14.3767 53.1201 14.6233 52.8736 14.7994C52.3099 15.1869 52.3099 15.5039 52.7679 15.9971C52.8736 16.1028 52.9088 16.3494 52.9088 16.5255C52.944 17.1243 52.944 17.7232 53.0145 18.322C53.0497 18.5686 53.1554 18.7799 53.261 19.0617C53.5781 18.9208 53.8246 18.8151 53.9303 18.7799C54.0712 19.3435 54.1769 19.8015 54.353 20.2594C55.2337 22.1263 56.1143 23.9581 56.9949 25.7898C57.1711 26.1421 57.4176 26.4591 57.5938 26.7761C57.0302 27.9738 55.9734 28.0442 54.7757 28.009C52.8031 27.9386 50.8305 27.9738 48.8578 28.009C48.259 28.009 47.7306 27.9033 47.4136 27.2693C47.3431 27.0931 47.0613 26.9875 46.9909 26.9522C48.259 24.2399 49.7737 21.7036 50.6896 18.8856C51.3236 19.0969 51.4645 19.0265 51.535 18.1811C51.5702 17.6879 51.5702 17.23 51.6054 16.7368C51.6054 16.4198 51.4998 16.0323 52.0281 15.9619C52.0986 15.9619 52.1338 15.5392 52.2395 15.1517C50.126 15.5744 48.259 14.9756 46.392 14.5176C45.1239 14.2006 43.8206 13.9892 42.5877 14.5529C42.165 14.729 41.6366 14.9756 41.4252 15.363C40.3685 17.0539 39.3117 18.8151 40.2628 20.9639C40.5094 21.4923 40.6503 22.0911 40.8264 22.6547C41.1434 23.6763 41.0025 24.1342 40.2276 24.8739C40.3333 25.0148 40.4389 25.1557 40.5446 25.3319C40.298 25.4728 40.0867 25.5784 39.8401 25.6841C40.4742 26.4239 40.4037 27.2693 40.2276 28.1499C40.0515 29.0658 39.8401 30.0169 39.9106 30.8975C40.0515 32.4474 40.4037 33.9621 40.7207 35.4768C40.9321 36.4631 41.7775 36.8154 42.8343 36.9563C43.5036 37.062 44.2433 36.7449 44.7365 37.4495C44.8069 37.5551 45.1239 37.4847 45.3001 37.5199C45.6875 37.6256 46.0398 37.8017 46.392 37.9426C46.3568 38.0131 46.3216 38.1187 46.3216 38.1892C41.6014 38.2244 36.8107 38.2244 31.9144 38.2244ZM52.5213 26.5295H56.9597C56.9597 26.4591 56.9949 26.4239 56.9949 26.3886C55.9382 24.2047 54.9166 22.0207 53.8599 19.8367C53.7894 19.6958 53.6485 19.5549 53.5076 19.5549C52.9792 19.4492 52.8383 19.0969 52.8031 18.639C52.8031 18.3924 52.7327 18.1811 52.6974 17.9345C52.627 17.9345 52.5917 17.9345 52.5213 17.9697V26.5295ZM25.8556 17.8641C25.4681 18.5686 25.609 19.4844 24.6227 19.7662C24.517 19.8015 24.4818 20.0128 24.4465 20.1537C23.6364 21.8798 22.7909 23.5706 21.9808 25.2966C21.8046 25.6841 21.6285 26.0716 21.4171 26.5295H25.8908C25.8556 23.6058 25.8556 20.7525 25.8556 17.8641ZM26.2078 26.4943H30.7871C29.6951 24.2047 28.6384 22.0207 27.5464 19.8015C27.5112 19.6958 27.4055 19.5549 27.335 19.5549C26.5248 19.4844 26.4896 18.9208 26.4896 18.2868C26.4896 18.1459 26.3839 18.0402 26.3487 17.8993C26.3135 17.8993 26.2783 17.9345 26.243 17.9345C26.2078 20.7878 26.2078 23.641 26.2078 26.4943ZM52.1338 17.8641C51.7816 18.5686 51.8872 19.4844 50.9009 19.8015C50.8305 19.8367 50.7952 20.0128 50.76 20.1185C49.8442 22.0207 48.9283 23.9228 48.0124 25.825C47.9067 26.0364 47.8363 26.2477 47.7306 26.5295H52.169C52.1338 23.6058 52.1338 20.7525 52.1338 17.8641Z" fill="#1C3E76"/>
<path d="M48.7874 44.8468C50.4077 46.8547 52.5917 46.7138 54.7757 46.5729C53.4724 47.2774 52.169 48.0876 50.6191 47.5592C48.9635 46.9956 47.9067 45.8684 47.4488 44.1775C51.3588 43.1208 52.9792 39.88 54.7757 36.8154C55.5507 35.4416 56.3609 34.0678 57.171 32.7292C57.2767 32.7997 57.4176 32.8349 57.5233 32.9054C56.9597 35.1246 56.5722 37.4142 55.8325 39.563C54.8462 42.4515 52.5917 43.9662 49.668 44.6003C49.4566 44.6355 49.2453 44.6707 49.0692 44.7412C48.9987 44.7059 48.9635 44.7412 48.7874 44.8468ZM53.1553 41.0777C51.9577 42.0992 50.7248 43.1912 49.6328 44.1071C52.9087 43.5435 55.6916 40.655 55.5859 37.7313C54.8462 38.9289 54.1064 40.1618 53.2962 41.4652C53.1906 41.1834 53.1553 41.0425 53.1553 41.0777Z" fill="#787878"/>
<path d="M30.9632 44.1071C30.0474 47.5592 27.1941 48.5103 23.6011 46.5024C24.6931 46.5024 25.7851 46.6081 26.8419 46.4672C27.9691 46.3615 28.8849 45.7627 29.6247 44.7412C29.1667 44.6355 28.7793 44.565 28.427 44.4946C24.5522 43.5435 22.5443 40.9016 21.8046 37.0972C21.5228 35.6882 21.241 34.2439 21.1001 32.7292C21.4876 33.2576 21.9455 33.786 22.2625 34.3496C23.1432 35.8995 23.9534 37.4847 24.8692 38.9994C25.926 40.7254 27.1941 42.3106 28.9202 43.4026C29.5542 43.7901 30.2587 43.8957 30.9632 44.1071ZM28.744 44.0719C27.6873 43.156 26.4544 42.0992 25.2215 41.0425C25.2215 41.0072 25.1863 41.1482 25.0454 41.3947C24.2352 40.0914 23.5307 38.8585 22.7557 37.5904C23.0023 40.9368 25.6442 43.6492 28.744 44.0719Z" fill="#787878"/>
<path d="M35.4721 45.0935H42.9399C43.3979 46.1503 43.9262 47.2775 44.4898 48.6161C43.2569 48.2286 42.0945 47.9468 41.0025 47.4536C39.7696 46.9252 38.6424 46.9252 37.4095 47.4536C36.3175 47.9116 35.1198 48.1934 33.9222 48.6161C34.4858 47.3127 35.0142 46.1855 35.4721 45.0935Z" fill="#787878"/>
<path d="M60.4823 40.021C58.4744 42.839 54.9519 43.2265 52.3804 45.1287C52.31 45.0582 52.2747 44.9525 52.2043 44.8821C53.1906 44.1776 54.0712 43.2969 55.1632 42.839C57.8404 41.747 60.0244 40.021 61.8561 37.8018C61.9265 42.1697 56.7484 46.6081 52.4509 45.7627C54.036 44.7764 55.445 43.7196 57.3472 43.931C57.1006 43.8606 56.8893 43.7549 56.537 43.614C58.2279 42.7333 59.7426 41.8175 60.4823 40.021Z" fill="#787878"/>
<path d="M22.016 43.6139C21.6989 43.7548 21.4524 43.8253 21.2058 43.9309C23.1432 43.7196 24.5522 44.8468 26.1726 45.7627C21.3819 46.3615 17.5423 42.9798 16.6265 37.8369C17.5423 38.7176 18.3877 39.6686 19.3741 40.4436C20.3604 41.2186 21.4876 41.8526 22.6148 42.4162C23.9886 43.0855 25.1863 43.8957 26.2078 45.0582C23.5659 43.2616 20.1138 42.8389 18.1059 39.9504C18.3525 41.1481 19.3388 42.0992 22.016 43.6139Z" fill="#787878"/>
<path d="M57.8052 38.2949C60.5527 36.6393 63.723 35.5473 65.0616 32.2714C63.4412 35.1599 60.4823 36.2871 57.8052 37.8018C57.7699 37.7313 57.6995 37.6961 57.6642 37.6256C58.8619 36.6041 60.0244 35.5473 61.2925 34.6315C62.772 33.5395 64.2514 32.4827 65.1673 30.7214C65.8718 33.0815 65.1673 35.1246 63.2651 36.428C61.6095 37.5904 59.7426 38.0483 57.8052 38.2949Z" fill="#787878"/>
<path d="M20.6069 37.6609C17.965 36.2167 15.1118 35.1247 13.4209 32.3419C13.8436 32.9759 14.0902 33.7861 14.6891 34.2088C16.4151 35.477 18.2468 36.6394 20.0433 37.8018C20.2899 37.978 20.6069 38.0836 20.8535 38.295C18.8104 38.0836 16.8026 37.5905 15.147 36.3224C13.3153 34.9133 12.8221 33.0464 13.4209 30.6863C15.0413 33.927 18.6695 34.8429 20.6069 37.6609Z" fill="#787878"/>
<path d="M16.4151 28.9601C17.5423 30.8976 18.6695 32.8702 19.9024 34.9837C17.2957 33.8213 15.8163 30.7214 16.239 27.375C16.4151 27.6216 16.556 27.7977 16.6617 27.9738C17.2957 28.8192 17.8593 29.7351 18.5639 30.5101C19.6206 31.7077 20.0433 32.6588 20.0433 34.4906C19.4445 33.4338 18.9513 32.4475 18.3525 31.5316C17.7889 30.6157 17.1196 29.7351 16.5208 28.8192C16.4856 28.8897 16.4503 28.9249 16.4151 28.9601Z" fill="#787878"/>
<path d="M62.3492 27.5864C62.8072 30.6158 61.3629 33.6804 58.7915 34.8077C59.9187 32.835 61.0459 30.8624 62.1731 28.925C62.1027 28.8898 62.0322 28.8545 61.9618 28.8193C60.8345 30.651 59.6721 32.4828 58.5801 34.2793C58.404 33.4339 58.721 32.0601 59.3903 31.2147C60.3766 29.9818 61.3629 28.7841 62.3492 27.5864Z" fill="#787878"/>
<path d="M68.0206 24.3103C67.8797 27.3749 66.4706 29.5941 63.6174 31.1088C64.498 28.9601 66.224 27.5863 67.4569 25.8955C67.5274 25.9659 67.5978 26.0364 67.6683 26.1068C66.8581 26.7409 65.9422 27.3045 65.2377 28.0442C64.5332 28.7839 64.0401 29.6998 63.406 30.5805C63.5117 28.8896 64.1105 27.5863 65.5195 26.6352C66.4002 26.0011 67.1399 25.1205 68.0206 24.3103Z" fill="#787878"/>
<path d="M14.7948 31.0033C12.1176 29.5942 10.7086 27.375 10.5677 24.3809C11.8006 25.4729 13.1744 26.4592 14.2664 27.6921C14.8652 28.3966 15.0413 29.4886 15.2879 30.4397C13.9846 28.8545 12.6812 27.3046 11.3779 25.7194C11.3074 25.7547 11.237 25.8251 11.2017 25.8603C12.5051 27.5159 13.8084 29.1715 15.0766 30.8271C14.9709 30.8624 14.8652 30.9328 14.7948 31.0033Z" fill="#787878"/>
<path d="M59.2141 6.5918C61.6094 8.6701 63.5116 11.1007 64.4275 14.1653C64.357 14.2005 64.2866 14.2357 64.2514 14.271L61.3981 9.19849C61.3276 9.23371 61.2924 9.26894 61.222 9.30416C62.0674 10.9245 62.948 12.5801 63.7934 14.2005C61.2572 12.2631 61.0458 8.95191 59.2141 6.5918Z" fill="#787878"/>
<path d="M15.4288 7.82476C14.9004 9.19855 14.372 10.5723 13.8084 12.0518C13.4209 10.0087 15.4992 5.64077 17.7184 3.70337C16.6969 6.45096 15.6754 9.1281 14.6538 11.8052C14.5481 11.77 14.4425 11.7348 14.3368 11.6996C14.7595 10.4314 15.1822 9.16333 15.6401 7.89521C15.5345 7.85998 15.4992 7.85998 15.4288 7.82476Z" fill="#787878"/>
<path d="M14.3368 14.2713C15.0413 11.0658 16.9787 8.67042 19.374 6.55688C17.5775 8.95222 17.2957 12.2282 14.7947 14.2008C15.6401 12.5805 16.5208 10.9249 17.3662 9.30448C17.2957 9.26925 17.2605 9.23403 17.1901 9.1988C16.239 10.8896 15.2879 12.5805 14.3368 14.2713Z" fill="#787878"/>
<path d="M60.8698 3.73877C62.9481 6.13411 64.7798 8.63512 64.7798 11.9815C64.1105 10.3259 63.4764 8.67035 62.8072 7.01474C62.7367 7.04997 62.7015 7.04997 62.631 7.0852C63.1594 8.63512 63.723 10.1498 64.2514 11.6997C64.1457 11.735 64.04 11.7702 63.9344 11.8406C62.9481 9.12828 61.8913 6.41591 60.8698 3.73877Z" fill="#787878"/>
<path d="M23.3546 0.568359C21.3467 3.03415 19.3389 5.53516 17.2958 8.00095C17.2253 7.9305 17.1549 7.89527 17.0844 7.82482C17.9651 6.62715 18.8457 5.42948 19.7263 4.26704C19.6559 4.23182 19.6207 4.19659 19.5502 4.12614C18.6343 5.28858 17.7185 6.45102 16.8026 7.64869C16.9083 5.92264 20.8183 1.69558 23.3546 0.568359Z" fill="#787878"/>
<path d="M55.0223 0.321777C58.0165 2.29441 60.4823 4.44317 61.7856 7.68392C60.8698 6.52147 59.9539 5.3238 59.0381 4.16136C58.9676 4.19659 58.9324 4.26704 58.8619 4.30226C59.7426 5.49993 60.6232 6.66237 61.5038 7.86004C61.4334 7.93049 61.3629 7.96572 61.2925 8.03617C59.2494 5.53516 57.2415 3.03414 55.0223 0.321777Z" fill="#787878"/>
<path d="M13.3505 26.0364C11.4836 24.6979 10.6382 22.8661 10.8143 20.5413C11.7301 22.2673 14.055 23.1127 13.7732 25.5081C13.0335 24.3808 12.2938 23.2536 11.554 22.0912C11.4836 22.1264 11.4131 22.1616 11.3427 22.1969C12.0824 23.3945 12.8221 24.6274 13.5266 25.8251C13.4914 25.9308 13.421 26.0012 13.3505 26.0364Z" fill="#787878"/>
<path d="M64.7798 25.5082C64.7798 24.3809 65.132 23.4299 65.9775 22.6549C66.6467 22.0208 67.1751 21.2811 67.774 20.6118C68.3023 22.3026 67.1047 24.8389 65.0264 26.1775C65.4491 25.332 65.7661 24.6275 66.1536 23.9935C66.5411 23.3594 67.0342 22.7606 67.4569 22.1265C67.3865 22.0913 67.316 22.0208 67.2456 21.9856C66.4002 23.1128 65.59 24.3105 64.7798 25.5082Z" fill="#787878"/>
<path d="M17.6128 13.3552C16.3447 14.8699 16.5913 17.4414 14.2311 18.1107C14.9709 16.9482 15.7458 15.7506 16.5208 14.5529C16.4504 14.5177 16.3799 14.4824 16.3447 14.412C15.5345 15.6097 14.6891 16.8426 13.7732 18.1811C13.6323 16.2085 15.3231 14.1302 17.6128 13.3552Z" fill="#787878"/>
<path d="M62.0674 14.5528C62.8424 15.7505 63.5821 16.9482 64.3219 18.1458C63.5117 17.8288 62.772 17.3004 62.3845 16.3846C61.9618 15.363 61.4686 14.3415 61.0459 13.3904C63.0538 13.9188 64.7446 15.9266 64.7446 18.0754C63.8992 16.8777 63.089 15.6448 62.2436 14.4471C62.1731 14.4824 62.1027 14.5176 62.0674 14.5528Z" fill="#787878"/>
<path d="M65.3786 21.3514C64.5684 19.1322 66.5411 17.7232 66.8581 15.6096C67.8092 17.9345 67.3513 20.4355 65.7661 21.9502C65.9422 21.0344 66.0831 20.2594 66.2945 19.4844C66.5058 18.7447 66.7876 18.0402 67.0342 17.3357C66.9638 17.3004 66.8581 17.2652 66.7877 17.2652C66.2945 18.639 65.8366 20.0128 65.3786 21.3514Z" fill="#787878"/>
<path d="M13.2096 21.3865C12.7164 19.9423 12.2585 18.5685 11.8006 17.1947C11.7301 17.2299 11.6596 17.2299 11.6244 17.2651C12.0471 18.7798 12.4698 20.2593 12.8925 21.774C12.8221 21.8092 12.7164 21.8092 12.646 21.8445C11.2369 20.0832 10.8847 18.0753 11.6949 15.6448C12.1176 17.7231 13.9845 19.1321 13.2096 21.3865Z" fill="#787878"/>
<path d="M64.6389 22.9365C64.0753 21.2809 63.5469 19.8719 63.0537 18.4276C62.9833 18.4629 62.9128 18.4629 62.8424 18.4981C63.2651 19.8719 63.6878 21.2457 64.0753 22.5138C63.3355 22.0559 62.948 21.5275 62.7719 20.506C62.5606 19.414 62.3844 18.322 62.2083 17.23C63.9696 18.2515 65.2729 20.9639 64.6389 22.9365Z" fill="#787878"/>
<path d="M14.3368 22.7958C14.689 21.9152 15.0061 21.2811 15.2174 20.5766C15.4288 19.9073 15.5344 19.2028 15.5697 18.463C15.0413 19.9073 14.5129 21.3515 14.0197 22.7958C13.4914 20.6823 14.6186 18.3221 16.4855 17.2654C15.828 20.2948 15.1117 22.1382 14.3368 22.7958Z" fill="#787878"/>
<path d="M63.6173 27.3398C63.406 25.7898 63.1946 24.2751 62.9833 22.7252C62.9128 22.7252 62.8424 22.7252 62.7719 22.7604C62.9128 24.2399 63.0185 25.6842 63.1594 27.1284C62.4901 26.3534 62.1379 25.4024 62.2788 24.2751C62.3845 23.3241 62.3844 22.3377 62.4197 21.4219C63.8991 22.5491 64.5332 25.2615 63.6173 27.3398Z" fill="#787878"/>
<path d="M65.7309 16.9835C65.7309 16.2085 65.6957 15.3983 65.7309 14.6233C65.7661 13.8836 65.8718 13.1439 65.9422 12.3689C65.8718 12.3689 65.8013 12.3689 65.7309 12.3337C65.6252 13.0734 65.4491 13.8132 65.4139 14.5177C65.3434 15.2574 65.4139 15.9971 65.4139 16.8073C64.8855 15.9267 64.6037 15.1165 64.815 14.1654C65.0264 13.1086 65.3082 12.0519 65.5195 10.9951C66.7524 12.2985 66.9286 14.8699 65.7309 16.9835Z" fill="#787878"/>
<path d="M13.1744 10.8894C13.0687 12.9325 14.6538 14.7994 13.2448 16.7016C13.1391 15.2574 13.0335 13.8131 12.9278 12.3337H12.7517V17.1243C11.6244 15.1869 11.8006 12.545 13.1744 10.8894Z" fill="#787878"/>
<path d="M16.3799 21.2456C15.7459 23.183 17.1197 25.2261 15.4993 26.9521C15.605 25.4727 15.7106 24.0989 15.8163 22.6899C15.7459 22.6899 15.7106 22.6546 15.6402 22.6546C15.4288 24.2046 15.2175 25.7545 14.9709 27.551C13.9141 25.2965 14.9004 22.3376 16.3799 21.2456Z" fill="#787878"/>
<path d="M45.8284 44.4946C46.1455 44.4241 46.392 44.3889 46.4625 44.3889C47.4136 45.7627 48.2942 47.0661 49.2101 48.4399C48.9283 48.4046 48.4703 48.4751 48.1885 48.299C46.85 47.4183 46.1102 46.1502 45.8284 44.4946Z" fill="#787878"/>
<path d="M32.5484 44.3184C32.4075 46.6432 30.5406 48.7568 29.3781 48.3693C30.1178 47.1364 30.8576 45.8683 31.6678 44.6002C31.7734 44.424 32.1609 44.424 32.5484 44.3184Z" fill="#787878"/>
<path d="M44.983 44.6707C45.1944 45.4104 45.3353 46.0797 45.5819 46.7137C45.8284 47.3126 46.2159 47.841 46.4977 48.4046C45.4057 48.5807 44.2785 47.066 43.9263 44.8116C44.2433 44.7763 44.5956 44.7411 44.983 44.6707Z" fill="#787878"/>
<path d="M32.0552 48.44C32.5484 47.2423 33.0416 46.0094 33.6052 44.7061C33.7813 44.7413 34.0983 44.7765 34.4153 44.8117C34.521 46.4673 33.112 48.5104 32.0552 48.44Z" fill="#787878"/>
<path d="M1.54641 57.7886H0.591797V64.4673H7.27056V63.5127H1.54641V57.7886ZM9.56022 58.7432H15.2844V57.7886H8.60561V64.4673H15.2844V63.5127H9.56022V61.6035H14.3298V60.6489H9.56022V58.7397V58.7432ZM19.6735 61.6035H22.5338V62.5581C22.5338 63.083 22.104 63.5127 21.5792 63.5127H18.7189C18.194 63.5127 17.7642 63.083 17.7642 62.5581V59.6978C17.7642 59.1729 18.194 58.7432 18.7189 58.7432H21.5792C22.104 58.7432 22.5338 59.1729 22.5338 59.6978H23.4884C23.4602 58.6375 22.6007 57.7886 21.5792 57.7886H18.7189C17.6515 57.7886 16.8096 58.6868 16.8096 59.6978V62.5581C16.8096 63.636 17.6973 64.4673 18.7189 64.4673H21.5792C22.6465 64.4673 23.4884 63.5691 23.4884 62.5581V60.6489H19.6735V61.6035ZM29.9805 58.7432C30.5053 58.7432 30.9351 59.1729 30.9351 59.6978V61.607H26.1655V59.6978C26.1655 59.1729 26.5953 58.7432 27.1202 58.7432H29.9805ZM31.8897 59.6978C31.8615 58.6375 31.002 57.7886 29.9805 57.7886H27.1202C26.0528 57.7886 25.2109 58.6868 25.2109 59.6978V64.4673H26.1655V62.5581H30.9351V64.4673H31.8897V59.6978ZM34.6549 57.7886H33.7003V64.4673H40.379V63.5127H34.6549V57.7886ZM47.3467 58.7432H53.0708V57.7886H46.3921V64.4673H47.3467V61.607H52.1162V60.6524H47.3467V58.7432ZM60.2216 62.5581C60.2216 63.083 59.7918 63.5127 59.267 63.5127H56.4067C55.8818 63.5127 55.4521 63.083 55.4521 62.5581V59.6978C55.4521 59.1729 55.8818 58.7432 56.4067 58.7432H59.267C59.7918 58.7432 60.2216 59.1729 60.2216 59.6978V62.5581ZM61.1762 59.6978C61.1762 58.6586 60.2815 57.7886 59.267 57.7886H56.4067C55.357 57.7886 54.4975 58.6481 54.4975 59.6978V62.5581C54.4975 63.6184 55.3464 64.4673 56.4067 64.4673H59.267C60.3167 64.4673 61.1762 63.6078 61.1762 62.5581V59.6978ZM68.6194 62.5581C68.6194 63.083 68.1896 63.5127 67.6648 63.5127H64.8044C64.2796 63.5127 63.8498 63.083 63.8498 62.5581V57.7886H62.8952V62.5581C62.8952 63.636 63.7829 64.4673 64.8044 64.4673H67.6648C68.7321 64.4673 69.574 63.5691 69.574 62.5581V57.7886H68.6194V62.5581ZM77.1087 60.6489C77.1087 61.1737 76.679 61.6035 76.1541 61.6035H72.3392V58.7432H76.1541C76.679 58.7432 77.1087 59.1729 77.1087 59.6978V60.6524V60.6489ZM78.0633 64.4638V63.7875L76.7389 62.463C77.5314 62.1953 78.0633 61.4626 78.0633 60.6524V59.6978C78.0633 58.6375 77.158 57.7886 76.1541 57.7886H71.3846V64.4673H72.3392V62.5581H75.4778L77.387 64.4673H78.0633V64.4638Z" fill="black"/>
<path d="M12.329 68.4939V71.0548H12.019V68.4939H12.329ZM12.8891 69.6598V69.9346H12.1035V69.6598H12.8891ZM15.0625 69.7761C15.0625 70.0473 15.0132 70.2798 14.9145 70.4771C14.8159 70.6743 14.682 70.8258 14.513 70.9315C14.3439 71.0371 14.1501 71.09 13.9317 71.09C13.7133 71.09 13.5196 71.0371 13.3505 70.9315C13.1814 70.8258 13.0476 70.6743 12.9489 70.4771C12.8503 70.2798 12.801 70.0473 12.801 69.7761C12.801 69.5048 12.8503 69.2723 12.9489 69.0751C13.0476 68.8778 13.1814 68.7263 13.3505 68.6207C13.5196 68.515 13.7133 68.4622 13.9317 68.4622C14.1501 68.4622 14.3439 68.515 14.513 68.6207C14.682 68.7263 14.8159 68.8778 14.9145 69.0751C15.0132 69.2723 15.0625 69.5048 15.0625 69.7761ZM14.7631 69.7761C14.7631 69.5541 14.7243 69.3675 14.6503 69.2125C14.5764 69.061 14.4777 68.9447 14.3509 68.8672C14.2241 68.7898 14.0867 68.751 13.9317 68.751C13.7767 68.751 13.6358 68.7898 13.509 68.8672C13.3822 68.9447 13.2836 69.061 13.2096 69.2125C13.1356 69.3639 13.1004 69.5506 13.1004 69.7761C13.1004 70.0015 13.1356 70.1847 13.2096 70.3362C13.2836 70.4876 13.3822 70.6039 13.509 70.6814C13.6358 70.7589 13.7767 70.7976 13.9317 70.7976C14.0867 70.7976 14.2276 70.7589 14.3509 70.6814C14.4777 70.6039 14.5764 70.4876 14.6503 70.3362C14.7243 70.1847 14.7631 69.998 14.7631 69.7761ZM15.9008 71.0583V68.4974H16.7674C16.9682 68.4974 17.1337 68.5326 17.2605 68.6066C17.3874 68.677 17.4825 68.7757 17.5459 68.899C17.6093 69.0222 17.6375 69.1596 17.6375 69.3076C17.6375 69.4555 17.6058 69.5964 17.5459 69.7197C17.486 69.843 17.3909 69.9416 17.2641 70.0156C17.1373 70.0896 16.9717 70.1248 16.7744 70.1248H16.1545V69.85H16.7639C16.9012 69.85 17.0104 69.8254 17.095 69.7796C17.1795 69.7303 17.2394 69.6669 17.2746 69.5859C17.3134 69.5048 17.331 69.4132 17.331 69.3076C17.331 69.2019 17.3134 69.1138 17.2746 69.0328C17.2359 68.9518 17.176 68.8884 17.0915 68.8426C17.0069 68.7968 16.8942 68.7721 16.7568 68.7721H16.2108V71.0583H15.9008ZM18.4547 68.4974H18.7612V70.5158H18.7858L20.1878 68.4974H20.4872V71.0583H20.1772V69.0469H20.1526L18.7576 71.0583H18.4582V68.4974H18.4547ZM21.2023 71.6783V70.7835H21.3678C21.4242 70.7307 21.477 70.6602 21.5264 70.5651C21.5757 70.47 21.6215 70.3432 21.6567 70.1847C21.6919 70.0262 21.7166 69.8219 21.7271 69.5788L21.7835 68.4974H23.3052V70.7835H23.6011V71.6747H23.3052V71.0583H21.4982V71.6783H21.2023ZM21.7377 70.7835H23.0094V68.7721H22.0653L22.0266 69.5788C22.016 69.7655 21.9984 69.9346 21.9737 70.0861C21.9491 70.2375 21.9174 70.3714 21.8786 70.4876C21.8399 70.6039 21.7941 70.7025 21.7412 70.7835H21.7377ZM24.3831 68.4974H24.6896V70.5158H24.7143L26.1162 68.4974H26.4157V71.0583H26.1057V69.0469H26.081L24.6861 71.0583H24.3867V68.4974H24.3831ZM27.3773 68.4974H27.6873V69.3534C27.6873 69.4802 27.7084 69.5788 27.7542 69.6528C27.8 69.7232 27.8599 69.7761 27.9409 69.8043C28.0219 69.8324 28.1171 69.8465 28.2263 69.8465C28.2967 69.8465 28.3636 69.8465 28.427 69.8395C28.4904 69.8324 28.5539 69.8254 28.6173 69.8148C28.6807 69.8043 28.7405 69.7937 28.8004 69.7796C28.8603 69.7655 28.9202 69.7479 28.9766 69.7303V70.0086C28.9202 70.0262 28.8638 70.0438 28.811 70.0579C28.7582 70.072 28.7018 70.0825 28.6419 70.0931C28.582 70.1037 28.5221 70.1107 28.4517 70.1178C28.3848 70.1213 28.3108 70.1248 28.2263 70.1248C28.0501 70.1248 27.8987 70.1001 27.7683 70.0473C27.6415 69.998 27.5429 69.9135 27.476 69.8007C27.409 69.688 27.3738 69.5365 27.3738 69.3463V68.4903L27.3773 68.4974ZM28.9378 68.4974H29.2478V71.0583H28.9378V68.4974ZM30.1883 71.0583V68.4974H31.7347V68.7721H30.4983V69.6387H31.6537V69.9134H30.4983V70.7835H31.7559V71.0583H30.1883ZM34.6725 69.297H34.3625C34.3449 69.2089 34.3132 69.1279 34.2674 69.061C34.2216 68.9941 34.1688 68.9377 34.1019 68.8919C34.0385 68.8461 33.968 68.8109 33.887 68.7862C33.8095 68.7616 33.7285 68.751 33.6404 68.751C33.4854 68.751 33.3445 68.7898 33.2177 68.8672C33.0909 68.9447 32.9923 69.061 32.9183 69.2125C32.8443 69.3639 32.8091 69.5506 32.8091 69.7761C32.8091 70.0015 32.8443 70.1847 32.9183 70.3362C32.9923 70.4876 33.0909 70.6039 33.2177 70.6814C33.3445 70.7589 33.4854 70.7976 33.6404 70.7976C33.725 70.7976 33.806 70.787 33.887 70.7624C33.9645 70.7377 34.0349 70.706 34.1019 70.6602C34.1653 70.6144 34.2216 70.5581 34.2674 70.4876C34.3132 70.4207 34.3449 70.3397 34.3625 70.2516H34.6725C34.6479 70.382 34.6056 70.5017 34.5457 70.6039C34.4823 70.706 34.4083 70.7941 34.3168 70.8681C34.2252 70.9385 34.123 70.9949 34.0068 71.0336C33.894 71.0724 33.7708 71.09 33.6439 71.09C33.4255 71.09 33.2318 71.0371 33.0627 70.9315C32.8936 70.8258 32.7598 70.6743 32.6612 70.4771C32.5625 70.2798 32.5132 70.0473 32.5132 69.7761C32.5132 69.5048 32.5625 69.2723 32.6612 69.0751C32.7598 68.8778 32.8936 68.7263 33.0627 68.6207C33.2318 68.515 33.4255 68.4622 33.6439 68.4622C33.7743 68.4622 33.894 68.4798 34.0068 68.5185C34.1195 68.5573 34.2252 68.6101 34.3168 68.6841C34.4083 68.7545 34.4858 68.8426 34.5457 68.9483C34.6091 69.0504 34.6514 69.1667 34.6725 69.3005V69.297ZM36.9974 71.0583L36.1168 69.8817H35.7997V71.0583H35.4898V68.4974H35.7997V69.607H35.9336L36.9587 68.4974H37.3285L36.2929 69.6246L37.3638 71.0618H36.9939L36.9974 71.0583ZM38.1916 71.0583H37.8675L38.808 68.4974H39.1286L40.0691 71.0583H39.745L38.9806 68.9025H38.9595L38.1951 71.0583H38.1916ZM38.3113 70.0579H39.6217V70.3326H38.3113V70.0579ZM42.5243 71.0583H42.2143V68.7721H41.6683C41.5309 68.7721 41.4182 68.7933 41.3337 68.8355C41.2491 68.8778 41.1893 68.9377 41.1505 69.0117C41.1118 69.0856 41.0941 69.1772 41.0941 69.2794C41.0941 69.3815 41.1118 69.4696 41.1505 69.5436C41.1893 69.6176 41.2491 69.6739 41.3337 69.7127C41.4182 69.7514 41.5274 69.7725 41.6648 69.7725H42.3552V70.0508H41.6542C41.457 70.0508 41.2914 70.0191 41.1646 69.9522C41.0378 69.8853 40.9427 69.7937 40.8793 69.6774C40.8159 69.5612 40.7877 69.4273 40.7877 69.2759C40.7877 69.1244 40.8194 68.9905 40.8793 68.8708C40.9392 68.751 41.0343 68.6594 41.1646 68.5925C41.2914 68.5256 41.457 68.4903 41.6578 68.4903H42.5243V71.0512V71.0583ZM41.3196 69.9064H41.6683L41.0484 71.0583H40.6891L41.3196 69.9064ZM46.2794 71.0583L45.3987 69.8817H45.0817V71.0583H44.7717V68.4974H45.0817V69.607H45.2155L46.2406 68.4974H46.6105L45.5748 69.6246L46.6457 71.0618H46.2758L46.2794 71.0583ZM49.4074 69.7761C49.4074 70.0473 49.3581 70.2798 49.2594 70.4771C49.1608 70.6743 49.0269 70.8258 48.8579 70.9315C48.6888 71.0371 48.4915 71.09 48.2766 71.09C48.0618 71.09 47.8645 71.0371 47.6954 70.9315C47.5263 70.8258 47.3925 70.6743 47.2938 70.4771C47.1952 70.2798 47.1459 70.0473 47.1459 69.7761C47.1459 69.5048 47.1952 69.2723 47.2938 69.0751C47.3925 68.8778 47.5263 68.7263 47.6954 68.6207C47.8645 68.515 48.0582 68.4622 48.2766 68.4622C48.495 68.4622 48.6888 68.515 48.8579 68.6207C49.0269 68.7263 49.1608 68.8778 49.2594 69.0751C49.3581 69.2723 49.4074 69.5048 49.4074 69.7761ZM49.108 69.7761C49.108 69.5541 49.0692 69.3675 48.9952 69.2125C48.9213 69.061 48.8226 68.9447 48.6958 68.8672C48.5725 68.7898 48.4316 68.751 48.2766 68.751C48.1216 68.751 47.9807 68.7898 47.8539 68.8672C47.7306 68.9447 47.6285 69.061 47.5545 69.2125C47.4805 69.3639 47.4453 69.5506 47.4453 69.7761C47.4453 70.0015 47.4805 70.1847 47.5545 70.3362C47.6285 70.4876 47.7271 70.6039 47.8539 70.6814C47.9807 70.7589 48.1216 70.7976 48.2766 70.7976C48.4316 70.7976 48.5725 70.7589 48.6958 70.6814C48.8226 70.6039 48.9213 70.4876 48.9952 70.3362C49.0692 70.1847 49.108 69.998 49.108 69.7761ZM50.2457 68.4939H50.6156L51.4857 70.6215H51.5174L52.3875 68.4939H52.7573V71.0548H52.4685V69.1068H52.4438L51.6442 71.0548H51.3624L50.5628 69.1068H50.5381V71.0548H50.2493V68.4939H50.2457ZM55.6141 68.4939V71.0548H55.3041V68.7686H54.0114V71.0548H53.7014V68.4939H55.6141ZM56.6603 71.0548H56.3362L57.2768 68.4939H57.5973L58.5378 71.0548H58.2138L57.4494 68.899H57.4282L56.6638 71.0548H56.6603ZM56.7801 70.0544H58.0905V70.3291H56.7801V70.0544ZM59.2529 71.0548V68.4939H59.5629V69.6352H60.9296V68.4939H61.2396V71.0548H60.9296V69.9099H59.5629V71.0548H59.2529ZM62.1766 68.4939H62.4831V70.5123H62.5078L63.9097 68.4939H64.2091V71.0548H63.8992V69.0434H63.8745L62.4796 71.0548H62.1802V68.4939H62.1766ZM66.8863 71.0548H66.5763V68.7686H66.0303C65.8929 68.7686 65.7802 68.7898 65.6957 68.832C65.6111 68.8743 65.5512 68.9342 65.5125 69.0082C65.4737 69.0857 65.4561 69.1737 65.4561 69.2759C65.4561 69.378 65.4737 69.4661 65.5125 69.5401C65.5512 69.614 65.6111 69.6704 65.6957 69.7091C65.7802 69.7479 65.8894 69.769 66.0268 69.769H66.7172V70.0473H66.0162C65.819 70.0473 65.6534 70.0156 65.5266 69.9487C65.3998 69.8817 65.3047 69.7902 65.2413 69.6739C65.1779 69.5577 65.1497 69.4238 65.1497 69.2723C65.1497 69.1209 65.1814 68.987 65.2413 68.8672C65.3047 68.7475 65.3963 68.6559 65.5266 68.589C65.6569 68.522 65.819 68.4868 66.0197 68.4868H66.8863V71.0477V71.0548ZM65.6816 69.9029H66.0338L65.4139 71.0548H65.0546L65.6851 69.9029H65.6816Z" fill="#636362"/>
<path d="M9.5109 69.6458H0V69.998H9.5109V69.6458Z" fill="#898A8A"/>
<path d="M78.5529 69.6458H69.0421V69.998H78.5529V69.6458Z" fill="#898A8A"/>
</svg>
