<svg width="83" height="64" viewBox="0 0 83 64" fill="none" xmlns="http://www.w3.org/2000/svg">
<circle cx="29.2794" cy="37.5594" r="25.8846" fill="#1F3D63" fill-opacity="0.1"/>
<path d="M22.2679 19.2609V19.3182C20.4099 19.3182 18.6946 19.4896 17.3796 19.8326H17.351C16.5506 20.0328 15.9503 20.6615 15.7215 21.4334V21.4619C15.3786 22.777 15.2071 24.492 15.2071 26.3502H15.15C15.15 24.4922 14.9786 22.777 14.6356 21.4619V21.4334C14.4354 20.633 13.8067 20.0326 13.0061 19.8039H12.9776C11.691 19.4609 9.97577 19.2894 8.11777 19.2894V19.2324C9.97577 19.2324 11.691 19.0609 13.0061 18.7179H13.0346C13.835 18.5177 14.4354 17.889 14.6354 17.0884V17.0599C14.9784 15.7448 15.1498 14.0298 15.1498 12.1716H15.2069C15.2069 14.0296 15.3784 15.7448 15.7213 17.0599V17.0884C15.9215 17.8888 16.5502 18.4892 17.3221 18.7179H17.3506C18.6657 19.0609 20.3807 19.2324 22.2389 19.2324L22.2679 19.2609Z" fill="#1C3E76"/>
<path d="M11.5481 12.1719V12.2004C10.1474 12.2004 8.86097 12.3434 7.88909 12.5721C7.28868 12.715 6.83146 13.201 6.65999 13.7727V13.8012C6.40276 14.7731 6.28831 16.0881 6.28831 17.4602H6.23128C6.23128 16.0595 6.08831 14.7731 5.8596 13.8012V13.7727C5.71663 13.1723 5.2307 12.715 4.65898 12.5721H4.63046C3.65859 12.3148 2.34352 12.2004 0.971436 12.2004V12.1434C2.37221 12.1434 3.65859 12.0004 4.63046 11.7717H4.65898C5.25939 11.6287 5.71662 11.1428 5.8596 10.5426C6.11683 9.57069 6.23128 8.25563 6.23128 6.88354H6.28831C6.28831 8.28432 6.43128 9.57069 6.65999 10.5426V10.5711C6.80296 11.1715 7.28889 11.6287 7.86061 11.7717H7.88912C8.861 12.0291 10.1473 12.1719 11.5482 12.1719L11.5481 12.1719Z" fill="#1C3E76"/>
<path d="M6.28723 23.5779C5.60111 23.6065 4.94368 23.6637 4.45772 23.7781C4.17177 23.8639 3.94327 24.0926 3.8573 24.3786C3.74305 24.8645 3.6571 25.5219 3.6571 26.2081C3.6571 25.5219 3.59988 24.8645 3.4569 24.3786C3.37116 24.0926 3.14245 23.8641 2.85649 23.7781C2.37055 23.6639 1.71315 23.5779 1.02698 23.5779C1.7131 23.5779 2.37053 23.5207 2.85649 23.3777C3.14244 23.292 3.37094 23.0633 3.4569 22.7773C3.57116 22.2914 3.6571 21.634 3.6571 20.9478C3.6571 21.6339 3.71433 22.2914 3.8573 22.7773C3.94305 23.0633 4.17176 23.2918 4.45772 23.3777C4.94365 23.4922 5.60106 23.5494 6.28723 23.5779Z" fill="#1C3E76"/>
<path d="M82.0328 32.2747C82.0328 31.6284 81.5088 31.1044 80.8624 31.1044H77.3514V2.04071C77.3514 1.39444 76.8274 0.870361 76.181 0.870361H40.6146C39.9682 0.870361 39.4442 1.39444 39.4442 2.04071V23.4668L34.747 18.7878C34.5277 18.5693 34.2307 18.4467 33.9211 18.4467H27.436C26.7896 18.4467 26.2656 18.9708 26.2656 19.617V55.8714C26.2656 58.5849 28.4731 60.7923 31.1865 60.7923H74.6293C74.7792 60.7923 74.9221 60.763 75.0538 60.7116C75.3715 60.7638 75.6971 60.7921 76.0294 60.7921C79.3396 60.7921 82.0327 58.0989 82.0327 54.7887V53.6531C82.0327 53.5831 82.0254 53.5149 82.0136 53.4483C82.0254 53.3817 82.0327 53.3135 82.0327 53.2435V32.2747H82.0328ZM75.0107 3.21106V46.1044H72.3668V26.2844C72.3668 25.6381 71.8428 25.114 71.1964 25.114H41.7849V3.21106H75.0107ZM28.6063 55.8714V20.7874H33.4376L39.7887 27.1137C40.008 27.3322 40.305 27.4549 40.6146 27.4549H70.0259V47.2747V54.7887C70.0259 56.1669 70.494 57.4371 71.2777 58.4516H67.6852V47.9184C67.6852 47.2722 67.1613 46.7481 66.5149 46.7481C65.8685 46.7481 65.3445 47.2722 65.3445 47.9184V58.4516H31.1865C29.7638 58.4516 28.6063 57.2941 28.6063 55.8714ZM79.6921 54.7887C79.6921 56.8084 78.049 58.4515 76.0294 58.4515C74.0098 58.4515 72.3668 56.8084 72.3668 54.7887V48.4451H76.181C76.8274 48.4451 77.3514 47.921 77.3514 47.2747V33.4451H79.6921V53.2435C79.6921 53.3135 79.6993 53.3817 79.7112 53.4483C79.6993 53.5149 79.6921 53.5831 79.6921 53.6531V54.7887Z" fill="#1C3E76"/>
<path d="M52.1109 9.53107H69.9199C70.5663 9.53107 71.0903 9.00699 71.0903 8.36072C71.0903 7.71445 70.5663 7.19037 69.9199 7.19037H52.1109C51.4646 7.19037 50.9406 7.71445 50.9406 8.36072C50.9406 9.00699 51.4646 9.53107 52.1109 9.53107Z" fill="#1C3E76"/>
<path d="M47.4292 9.53107C47.737 9.53107 48.0389 9.40584 48.2566 9.18804C48.4743 8.97047 48.5995 8.66852 48.5995 8.36072C48.5995 8.05292 48.4743 7.75097 48.2566 7.53328C48.0389 7.3156 47.737 7.19037 47.4292 7.19037C47.1214 7.19037 46.8194 7.31548 46.6017 7.53328C46.3841 7.75108 46.2588 8.05292 46.2588 8.36072C46.2588 8.66852 46.3841 8.97047 46.6017 9.18804C46.8194 9.40584 47.1214 9.53107 47.4292 9.53107Z" fill="#1C3E76"/>
<path d="M69.9199 13.1199H47.4295C46.7831 13.1199 46.2592 13.644 46.2592 14.2903C46.2592 14.9366 46.7831 15.4606 47.4295 15.4606H69.9199C70.5663 15.4606 71.0903 14.9366 71.0903 14.2903C71.0903 13.644 70.5663 13.1199 69.9199 13.1199Z" fill="#1C3E76"/>
<path d="M69.9199 19.0499H47.4295C46.7831 19.0499 46.2592 19.5739 46.2592 20.2202C46.2592 20.8665 46.7831 21.3906 47.4295 21.3906H69.9199C70.5663 21.3906 71.0903 20.8665 71.0903 20.2202C71.0903 19.5739 70.5663 19.0499 69.9199 19.0499Z" fill="#1C3E76"/>
<path d="M55.7108 38.0183H55.285V36.0644C55.285 33.5494 53.239 31.5033 50.724 31.5033H47.9085C45.3936 31.5033 43.3474 33.5493 43.3474 36.0644V38.0183H42.9217C40.8978 38.0183 39.2512 39.6647 39.2512 41.6886V50.7326C39.2512 52.7565 40.8978 54.4031 42.9217 54.4031H55.7108C57.7347 54.4031 59.3812 52.7565 59.3812 50.7326V41.6887C59.3812 39.6648 57.7347 38.0183 55.7108 38.0183ZM45.6881 36.0644C45.6881 34.8401 46.6842 33.844 47.9085 33.844H50.724C51.9483 33.844 52.9443 34.8401 52.9443 36.0644V38.0183H45.6881V36.0644ZM57.0405 50.7327C57.0405 51.4661 56.444 52.0625 55.7108 52.0625H42.9217C42.1884 52.0625 41.5919 51.466 41.5919 50.7327V41.6887C41.5919 40.9555 42.1884 40.3591 42.9217 40.3591H55.7108C56.444 40.3591 57.0405 40.9556 57.0405 41.6887V50.7327Z" fill="#1C3E76"/>
<path d="M49.3163 43.1286C48.6699 43.1286 48.1459 43.6527 48.1459 44.299V45.7423C48.1459 46.3886 48.6699 46.9127 49.3163 46.9127C49.9627 46.9127 50.4866 46.3886 50.4866 45.7423V44.299C50.4866 43.6527 49.9627 43.1286 49.3163 43.1286Z" fill="#1C3E76"/>
<path d="M66.5152 44.4073C66.823 44.4073 67.125 44.2821 67.3427 44.0643C67.5603 43.8467 67.6856 43.5447 67.6856 43.2369C67.6856 42.9291 67.5603 42.6272 67.3427 42.4095C67.125 42.1918 66.823 42.0666 66.5152 42.0666C66.2074 42.0666 65.9055 42.1917 65.6878 42.4095C65.4701 42.6273 65.3449 42.9291 65.3449 43.2369C65.3449 43.5447 65.4701 43.8467 65.6878 44.0643C65.9055 44.2821 66.2074 44.4073 66.5152 44.4073Z" fill="#1C3E76"/>
</svg>
