<svg width="88" height="72" viewBox="0 0 88 72" fill="none" xmlns="http://www.w3.org/2000/svg">
<circle cx="26.2794" cy="45.5597" r="25.8846" fill="#1F3D63" fill-opacity="0.1"/>
<path d="M86.6765 62.0841H60.1552V59.4321C62.9432 59.1769 65.551 58.811 67.8938 58.3513C68.7048 59.2772 69.8816 59.874 71.2057 59.874C73.4525 59.874 75.2936 58.1835 75.5699 56.0095C77.7983 54.9012 78.9411 53.603 78.9411 52.1386C78.9411 47.6169 68.0287 45.736 62.1732 45.0529L63.1466 44.0795C63.3543 43.8728 63.4703 43.5922 63.4703 43.2981V38.2304L71.0709 30.6288C71.871 29.8297 72.3108 28.7689 72.3108 27.6374C72.3108 25.3054 70.4136 23.4071 68.0794 23.4071C66.9501 23.4071 65.8882 23.8469 65.088 24.646L63.4703 26.2647V9.04138C63.4703 6.60357 61.4879 4.62116 59.0501 4.62116C58.2413 4.62116 57.4929 4.85533 56.84 5.23574V4.62116C56.84 2.18334 54.8576 0.200928 52.4198 0.200928C51.0935 0.200928 49.9156 0.79986 49.1046 1.72794C48.2936 0.79986 47.1157 0.200928 45.7894 0.200928C43.3516 0.200928 41.3692 2.18334 41.3692 4.62116V9.65596C40.7163 9.27556 39.9679 9.04138 39.1591 9.04138C36.7213 9.04138 34.7389 11.0238 34.7389 13.4616V43.2981C34.7389 43.5922 34.8549 43.8728 35.0626 44.0795L36.2837 45.3005C35.204 45.4495 34.1664 45.6167 33.1773 45.7991C32.4591 44.325 30.9607 43.2981 29.2136 43.2981C26.7758 43.2981 24.7934 45.2806 24.7934 47.7184C24.7934 47.9051 24.8252 48.0831 24.8484 48.2644C22.6162 49.3749 21.4782 50.6731 21.4782 52.1386C21.4782 55.7376 28.742 58.1193 38.054 59.2022V62.0841H20.3731C19.7634 62.0841 19.2681 62.5778 19.2681 63.1892V67.6094C19.2681 68.2207 19.7634 68.7145 20.3731 68.7145H86.6765C87.2863 68.7145 87.7816 68.2207 87.7816 67.6094V63.1892C87.7816 62.5778 87.2863 62.0841 86.6765 62.0841ZM71.2057 57.6639C69.9868 57.6639 68.9956 56.6727 68.9956 55.4538C68.9956 54.2349 69.9868 53.2437 71.2057 53.2437C72.4247 53.2437 73.4159 54.2349 73.4159 55.4538C73.4159 56.6727 72.4247 57.6639 71.2057 57.6639ZM76.731 52.1386C76.731 52.4942 76.3177 53.0516 75.2493 53.6813C74.5641 52.1251 73.0112 51.0336 71.2057 51.0336C68.7679 51.0336 66.7855 53.016 66.7855 55.4538C66.7855 55.7425 66.8174 56.0241 66.8708 56.2971C64.8117 56.6781 62.5541 56.9867 60.1552 57.2106V47.0709L60.1606 47.0655C71.4523 48.1263 76.731 50.7033 76.731 52.1386ZM36.949 13.4616C36.949 12.2427 37.9402 11.2515 39.1591 11.2515C40.378 11.2515 41.3692 12.2427 41.3692 13.4616V23.4071H43.5793V4.62116C43.5793 3.40225 44.5705 2.41104 45.7894 2.41104C47.0083 2.41104 47.9995 3.40225 47.9995 4.62116V23.4071H50.2097V4.62116C50.2097 3.40225 51.2009 2.41104 52.4198 2.41104C53.6387 2.41104 54.6299 3.40225 54.6299 4.62116V23.4071H56.84V9.04138C56.84 7.82248 57.8312 6.83127 59.0501 6.83127C60.269 6.83127 61.2602 7.82248 61.2602 9.04138V27.8274H60.848C55.8299 27.8274 51.1124 29.7822 47.5641 33.3294L47.2182 33.6753L48.7809 35.2379L49.1267 34.8921C52.2584 31.7625 56.4213 30.0375 60.848 30.0375H62.3653C62.6583 30.0375 62.9399 29.9215 63.1466 29.7137L66.6506 26.2086C67.0332 25.8271 67.5404 25.6172 68.0794 25.6172C69.1947 25.6172 70.1007 26.5232 70.1007 27.6374C70.1007 28.1689 69.8854 28.6891 69.5082 29.0662L61.584 36.9916C61.3762 37.1982 61.2602 37.4788 61.2602 37.7729V42.8406L58.2688 45.832C58.0611 46.0387 57.9451 46.3193 57.9451 46.6133V57.3919C55.4533 57.5689 52.8531 57.6639 50.2097 57.6639C46.5087 57.6639 43.207 57.495 40.2641 57.2198V46.6133C40.2641 46.3193 40.1481 46.0387 39.9404 45.832L36.949 42.8406V13.4616ZM29.2136 45.5083C30.4325 45.5083 31.4237 46.4995 31.4237 47.7184C31.4237 48.9373 30.4325 49.9285 29.2136 49.9285C27.9947 49.9285 27.0035 48.9373 27.0035 47.7184C27.0035 46.4995 27.9947 45.5083 29.2136 45.5083ZM23.6883 52.1386C23.6883 51.7274 24.2333 51.0632 25.6642 50.3272C26.4687 51.4204 27.7551 52.1386 29.2136 52.1386C31.5661 52.1386 33.4768 50.2868 33.6084 47.9671C34.9973 47.7108 36.4839 47.4874 38.054 47.2997V56.9878C28.5958 55.8536 23.6883 53.5507 23.6883 52.1386ZM40.2641 59.431C43.4612 59.7235 46.8395 59.874 50.2097 59.874C52.8477 59.874 55.4479 59.7812 57.9451 59.6085V62.0841H40.2641V59.431ZM85.5715 66.5043H21.4782V64.2942H85.5715V66.5043Z" fill="#1C3E76"/>
</svg>
