<svg width="83" height="66" viewBox="0 0 83 66" fill="none" xmlns="http://www.w3.org/2000/svg">
<circle cx="28.3348" cy="39.671" r="25.8846" fill="#1F3D63" fill-opacity="0.1"/>
<path d="M21.3233 21.3725V21.4297C19.4653 21.4297 17.75 21.6012 16.435 21.9442H16.4065C15.606 22.1444 15.0057 22.7731 14.7769 23.5449V23.5735C14.434 24.8885 14.2625 26.6035 14.2625 28.4618H14.2055C14.2055 26.6038 14.034 24.8885 13.691 23.5735V23.5449C13.4908 22.7445 12.8621 22.1442 12.0615 21.9154H12.033C10.7465 21.5725 9.03119 21.401 7.17319 21.401V21.344C9.03119 21.344 10.7465 21.1725 12.0615 20.8295H12.09C12.8905 20.6293 13.4908 20.0006 13.6908 19.2V19.1715C14.0338 17.8564 14.2053 16.1414 14.2053 14.2831H14.2623C14.2623 16.1411 14.4338 17.8564 14.7767 19.1715V19.2C14.9769 20.0004 15.6056 20.6008 16.3775 20.8295H16.406C17.7211 21.1725 19.4361 21.344 21.2944 21.344L21.3233 21.3725Z" fill="#1C3E76"/>
<path d="M10.6035 14.2834V14.312C9.20277 14.312 7.91639 14.4549 6.94451 14.6836C6.3441 14.8266 5.88688 15.3125 5.71541 15.8843V15.9128C5.45818 16.8847 5.34373 18.1997 5.34373 19.5718H5.2867C5.2867 18.171 5.14373 16.8847 4.91502 15.9128V15.8843C4.77205 15.2838 4.28612 14.8266 3.7144 14.6836H3.68588C2.71401 14.4264 1.39894 14.312 0.0268555 14.312V14.2549C1.42763 14.2549 2.71401 14.112 3.68588 13.8832H3.7144C4.31481 13.7403 4.77204 13.2544 4.91502 12.6541C5.17225 11.6823 5.2867 10.3672 5.2867 8.99512H5.34373C5.34373 10.3959 5.4867 11.6823 5.71541 12.6541V12.6827C5.85838 13.2831 6.34431 13.7403 6.91603 13.8833H6.94454C7.91642 14.1407 9.20275 14.2835 10.6036 14.2835L10.6035 14.2834Z" fill="#1C3E76"/>
<path d="M5.34265 25.6895C4.65653 25.718 3.9991 25.7753 3.51314 25.8897C3.22719 25.9755 2.99869 26.2042 2.91272 26.4901C2.79847 26.9761 2.71252 27.6335 2.71252 28.3196C2.71252 27.6335 2.6553 26.9761 2.51232 26.4901C2.42658 26.2042 2.19787 25.9757 1.91191 25.8897C1.42597 25.7755 0.768568 25.6895 0.0823975 25.6895C0.768516 25.6895 1.42595 25.6323 1.91191 25.4893C2.19786 25.4036 2.42636 25.1749 2.51232 24.8889C2.62658 24.403 2.71252 23.7456 2.71252 23.0594C2.71252 23.7455 2.76975 24.4029 2.91272 24.8889C2.99847 25.1748 3.22718 25.4034 3.51314 25.4893C3.99907 25.6038 4.65648 25.661 5.34265 25.6895Z" fill="#1C3E76"/>
<path d="M60.2727 44.1002C60.2727 44.6567 59.8217 45.1081 59.2648 45.1081H47.8205C47.2636 45.1081 46.8121 44.6567 46.8121 44.1002C46.8121 43.5432 47.2636 43.0918 47.8205 43.0918H59.2648C59.8217 43.0918 60.2727 43.5432 60.2727 44.1002ZM64.1709 34.5903L47.8209 34.5898C47.264 34.5898 46.8125 35.0413 46.8125 35.5982C46.8125 36.1547 47.264 36.6062 47.8209 36.6062H64.1697C64.7266 36.6062 65.1776 36.1547 65.1776 35.5982C65.1776 35.0413 64.7266 34.5898 64.1697 34.5898L64.1709 34.5903ZM47.8209 26.0887C47.264 26.0887 46.8125 26.5397 46.8125 27.0967C46.8125 27.6536 47.264 28.1051 47.8209 28.1051H64.1697C64.7266 28.1051 65.1776 27.6536 65.1776 27.0967C65.1776 26.5397 64.7266 26.0887 64.1697 26.0887H47.8209ZM43.6977 24.6256H43.6973C43.2599 24.2815 42.6265 24.3569 42.2819 24.7943L39.8441 27.8919L39.1048 26.4455H39.1052C38.8469 25.9598 38.2473 25.7704 37.7574 26.0203C37.2675 26.2697 37.0678 26.8661 37.3088 27.3602L38.7616 30.212C38.9177 30.5182 39.2192 30.724 39.5614 30.7578C39.9036 30.791 40.2393 30.6481 40.4522 30.378L43.8642 26.0409C44.2088 25.604 44.1343 24.9706 43.6974 24.6256H43.6977ZM43.6977 32.6377H43.6973C43.2599 32.2936 42.6265 32.3691 42.2819 32.8065L39.8441 35.904L39.1048 34.4567H39.1052C38.8521 33.9607 38.245 33.7638 37.7489 34.0165C37.2529 34.2696 37.0555 34.8768 37.3087 35.3728L38.7615 38.2237V38.2241C38.9176 38.5303 39.2191 38.7361 39.5613 38.7699C39.9036 38.8031 40.2392 38.6602 40.4521 38.3901L43.8642 34.053C44.0301 33.843 44.1056 33.5758 44.0747 33.31C44.0433 33.0442 43.9078 32.8018 43.6973 32.6363L43.6977 32.6377ZM43.6977 40.6498H43.6973C43.2599 40.3057 42.6265 40.3812 42.2819 40.8181L39.8441 43.9165L39.1048 42.4692L39.1052 42.4697C38.8469 41.984 38.2473 41.7946 37.7574 42.0444C37.2675 42.2938 37.0678 42.8902 37.3088 43.3843L38.7616 46.2362C38.9177 46.5423 39.2192 46.7481 39.5614 46.7819C39.9036 46.8152 40.2393 46.6722 40.4522 46.4021L43.8642 42.0651C44.2088 41.6281 44.1343 40.9943 43.6974 40.6497L43.6977 40.6498ZM57.6965 3.8645V4.23065H59.4373C60.4335 4.23252 61.388 4.62867 62.0927 5.33331C62.7968 6.03747 63.1934 6.99243 63.1948 7.98821V8.3553H70.4353C71.4315 8.35717 72.3865 8.75332 73.0906 9.45795C73.7953 10.1621 74.1914 11.1171 74.1933 12.1129V23.9257C75.3128 22.5 76.4731 21.1124 77.692 19.7935V19.794C78.0488 19.3856 78.5284 19.1048 79.0587 18.9932C79.5889 18.8816 80.1412 18.9459 80.632 19.1756L80.8486 19.3045H80.8481C81.278 19.6261 81.5921 20.078 81.7445 20.5928C81.8964 21.108 81.8776 21.6579 81.6915 22.1614C81.4576 22.8337 81.2082 23.4993 80.9522 24.1642L82.1843 24.6945C82.677 24.9073 82.9166 25.469 82.7295 25.9716C81.4108 29.3879 79.7675 32.6696 77.8233 35.7722C77.5195 36.2391 76.8951 36.3718 76.4281 36.0685C75.9612 35.7647 75.8285 35.1402 76.1323 34.6733C77.828 31.9668 79.2842 29.1173 80.4839 26.1572L80.1961 26.033H80.1965C78.5439 29.9668 76.5332 33.7409 74.1905 37.3072V58.8539C74.1891 59.8497 73.7929 60.8042 73.0892 61.5083C72.3851 62.2125 71.4311 62.6091 70.4353 62.6114H31.9421C30.9459 62.61 29.9909 62.2134 29.2868 61.5092C28.5826 60.8051 28.186 59.8501 28.1846 58.8539V12.1131C28.186 11.1173 28.5826 10.1623 29.2868 9.45821C29.9909 8.75357 30.9459 8.35742 31.9421 8.35555H39.1825V7.98846C39.184 6.99269 39.5806 6.0377 40.2847 5.33356C40.9894 4.62893 41.9443 4.23277 42.9401 4.2309H44.6818V3.86475C44.6832 2.86851 45.0798 1.91351 45.784 1.20937C46.4886 0.505203 47.4431 0.108582 48.4394 0.107178H53.9386C54.9344 0.108584 55.8893 0.505203 56.594 1.20937C57.2981 1.91353 57.6948 2.86849 57.6962 3.86475L57.6965 3.8645ZM72.1766 40.2249C71.4936 41.1612 70.788 42.0786 70.0604 42.9774V57.4275H70.0599C70.0599 57.984 69.6089 58.4355 69.0519 58.4355C37.4742 58.4355 39.5841 58.4467 39.4245 58.4139C39.2707 58.3806 39.1272 58.3117 39.0058 58.2123C38.8614 58.0974 32.7175 51.4805 32.5778 51.3258C32.1746 50.8744 32.3176 52.8575 32.3176 14.8658C32.3176 14.3093 32.7691 13.8578 33.3256 13.8578H41.9326V13.1213H40.1909C39.6344 13.1213 39.183 12.6698 39.183 12.1129V10.3717H31.9426C31.4808 10.3721 31.0382 10.5559 30.7119 10.8822C30.3851 11.209 30.2018 11.6515 30.2009 12.1129V58.8536C30.2018 59.3154 30.3851 59.758 30.7119 60.0843C31.0382 60.411 31.4807 60.5943 31.9426 60.5953H70.4357C70.8975 60.5943 71.3401 60.411 71.6668 60.0843C71.9931 59.758 72.1769 59.3154 72.1774 58.8536L72.1766 40.2249ZM64.4562 46.3411C67.9189 42.4537 70.8921 39.217 74.5095 32.9664L71.5447 31.1839C67.5574 37.5814 65.9893 42.1711 64.4563 46.3373L64.4562 46.3411ZM68.0441 15.8712H60.4451V16.8599C60.4446 17.3264 60.2589 17.7736 59.9289 18.1036C59.5993 18.4337 59.1516 18.6193 58.6852 18.6198H43.6938C43.2268 18.6193 42.7796 18.4341 42.4491 18.1041C42.119 17.7741 41.9334 17.3263 41.9329 16.8599V15.8711H34.3344V49.6452H39.6282C40.1852 49.6452 40.6362 50.0967 40.6362 50.6532V56.4159H68.0445V45.3392L64.8589 48.9168H64.8584C64.6184 49.1891 64.2485 49.3077 63.895 49.2257L63.3465 50.1376V50.138C63.0507 50.5918 62.4487 50.7306 61.9841 50.4521C61.519 50.1741 61.3573 49.5778 61.6179 49.1029L62.1664 48.1911H62.166C61.9344 47.9154 61.8683 47.537 61.992 47.199C63.7633 42.3819 64.886 38.8452 68.0445 33.1678L68.0441 15.8712ZM38.6194 54.8624V51.6618H35.6419L38.6194 54.8624ZM58.4259 13.1252H43.9482V16.6071H58.4283L58.4259 13.1252ZM72.6479 29.4991L75.4782 31.201C77.165 28.0979 78.6019 24.8654 79.7749 21.5339C79.8256 21.36 79.8185 21.1739 79.7538 21.0046L79.6437 20.9376V20.9371C79.4543 20.9624 79.2794 21.0506 79.1463 21.1879C76.7646 23.7809 74.5927 26.5587 72.6508 29.4959L72.6479 29.4991ZM63.1947 10.372V12.1132C63.1947 12.6701 62.7432 13.1216 62.1867 13.1216H60.445V13.8548H69.0521C69.609 13.8548 70.06 14.3063 70.06 14.8628V29.7701C70.6456 28.8433 71.6441 27.374 72.1763 26.6239L72.1767 12.1126C72.1763 11.6513 71.9925 11.2087 71.6662 10.8819C71.3394 10.5556 70.8969 10.3719 70.4351 10.3714L63.1947 10.372ZM56.6879 6.24732H56.6884C56.1314 6.24732 55.68 5.79585 55.68 5.23937V3.86481C55.6795 3.40302 55.4957 2.96046 55.1694 2.63415C54.8431 2.30738 54.4001 2.12408 53.9388 2.12314H48.4396C47.9778 2.12408 47.5352 2.30739 47.2089 2.63415C46.8821 2.96046 46.6988 3.40301 46.6984 3.86481V5.23937C46.6984 5.79585 46.2469 6.24732 45.6899 6.24732H42.9404C42.4786 6.24779 42.036 6.43157 41.7097 6.75786C41.3834 7.08464 41.1996 7.5272 41.1992 7.98852V11.1053H61.1784V7.98852C61.178 7.5272 60.9947 7.08465 60.6679 6.75786C60.3416 6.43156 59.899 6.24779 59.4372 6.24732H56.6879Z" fill="#1C3E76"/>
</svg>
