<svg width="24" height="24" viewBox="0 0 24 24" fill="none" xmlns="http://www.w3.org/2000/svg">
<path d="M21.9712 11.051C21.9607 11.051 21.9506 11.051 21.9402 11.0507C21.3514 11.0341 20.8873 10.5431 20.904 9.95422C20.9588 8.02143 20.2658 6.16991 18.953 4.74157C17.6762 3.35265 15.9113 2.51334 13.9836 2.37892C13.3963 2.33775 12.9529 1.82807 12.9938 1.24049C13.035 0.652685 13.5471 0.207966 14.1322 0.250634C16.6062 0.423506 18.8761 1.50538 20.5234 3.2978C22.2144 5.13808 23.107 7.52358 23.0361 10.0147C23.0205 10.5929 22.546 11.0509 21.9709 11.0509L21.9712 11.051ZM18.1802 11.0284C18.1464 11.0284 18.113 11.0269 18.0787 11.0235C17.4924 10.9684 17.0614 10.4481 17.1169 9.86148C17.208 8.89543 16.9185 8.08469 16.2064 7.30982C15.4227 6.45641 14.4862 5.99208 13.5933 6.01443C13.5859 6.01468 13.5787 6.01468 13.5713 6.01468C12.9921 6.01468 12.5169 5.55113 12.5053 4.96977C12.4931 4.38098 12.9606 3.89388 13.5499 3.88169C15.0745 3.84945 16.5735 4.5558 17.7772 5.86611C18.8957 7.08314 19.3878 8.49485 19.24 10.0611C19.1884 10.6142 18.7241 11.0283 18.1802 11.0283L18.1802 11.0284Z" fill="#1C3E76"/>
<path d="M15.6481 22.0327L15.6477 22.0326C12.79 21.134 9.67087 19.1698 7.12857 16.6259L7.12822 16.6255C4.58504 14.0833 2.61997 10.9636 1.72019 8.10304L1.71972 8.10155C1.67465 7.95906 1.66324 7.71445 1.73624 7.42739C1.80874 7.14228 1.93884 6.91725 2.06233 6.79375L2.06239 6.79369L4.37913 4.47645L4.37962 4.47595C4.64631 4.20882 4.99628 4.06356 5.37424 4.06356C5.75071 4.06356 6.09895 4.2078 6.36394 4.47274C6.36397 4.47278 6.36401 4.47281 6.36404 4.47284L8.20918 6.31849L8.20984 6.31915C8.47491 6.58378 8.61907 6.93213 8.61805 7.31021L8.61805 7.31054C8.61716 7.68709 8.47189 8.03696 8.20508 8.30382C8.20507 8.30384 8.20505 8.30385 8.20504 8.30387L7.27872 9.23019L7.27782 9.23109C6.81888 9.69124 6.79122 10.4568 7.27456 10.9415L7.27548 10.9424L12.8113 16.4785L12.8113 16.4785C13.1039 16.771 13.4501 16.8314 13.6641 16.8314C13.886 16.8314 14.2313 16.7672 14.5232 16.4746C14.5235 16.4743 14.5237 16.4741 14.524 16.4738L15.4496 15.5489L15.4499 15.5486C15.7184 15.2801 16.069 15.1352 16.4464 15.1352C16.8221 15.1352 17.1699 15.2793 17.4352 15.5447L17.4354 15.5449L19.2802 17.3897C19.8249 17.9344 19.8258 18.8258 19.2771 19.3744L19.2769 19.3745L16.9614 21.6903L16.9607 21.691C16.8596 21.7923 16.6982 21.892 16.4884 21.9662C16.2797 22.0399 16.0727 22.0708 15.9244 22.0708C15.8107 22.0708 15.7189 22.055 15.6481 22.0327Z" stroke="#1C3E76" stroke-width="1.9406"/>
</svg>
