<svg width="31" height="31" viewBox="0 0 31 31" fill="none" xmlns="http://www.w3.org/2000/svg">
<path d="M12.6585 16.1617C12.6585 17.0017 12.9465 17.7217 13.4505 18.2737L16.0665 17.5057C15.8265 17.2897 15.6345 16.8817 15.6345 16.4977C15.6345 15.6097 16.3785 15.0817 17.2185 14.4577C18.3465 13.6657 19.6425 12.7057 19.6425 10.7137C19.6425 8.48168 17.7465 6.92168 14.6505 6.92168C12.5865 6.92168 10.6665 7.76168 9.39447 9.24968L11.3385 11.4337C12.0825 10.5457 13.0905 9.94568 14.2905 9.94568C15.6105 9.94568 16.1625 10.5697 16.1625 11.3137C16.1625 12.0337 15.5145 12.4897 14.7705 13.0177C13.8105 13.7137 12.6585 14.5057 12.6585 16.1617ZM12.6585 21.4897C12.6585 22.5457 13.5465 23.4337 14.6025 23.4337C15.6585 23.4337 16.5465 22.5457 16.5465 21.4897C16.5465 20.4337 15.6585 19.5457 14.6025 19.5457C13.5465 19.5457 12.6585 20.4337 12.6585 21.4897Z" fill="#151515"/>
<circle cx="15.1785" cy="15.1697" r="13.5" stroke="#151515" stroke-width="3"/>
</svg>
